<svg width="17" height="19" viewBox="0 0 17 19" fill="none" xmlns="http://www.w3.org/2000/svg">
<g clip-path="url(#clip0_271_3074)">
<path fill-rule="evenodd" clip-rule="evenodd" d="M6.15232 3.76184V2.0401H10.848V3.76184H6.15232ZM4.58711 3.76184V1.46619C4.58711 1.16176 4.69704 0.869809 4.89273 0.65455C5.08842 0.439291 5.35384 0.318359 5.63058 0.318359L11.3697 0.318359C11.6465 0.318359 11.9119 0.439291 12.1076 0.65455C12.3033 0.869809 12.4132 1.16176 12.4132 1.46619V3.76184H15.0219C15.2294 3.76184 15.4285 3.85254 15.5753 4.01398C15.722 4.17542 15.8045 4.39439 15.8045 4.62271C15.8045 4.85102 15.722 5.06999 15.5753 5.23143C15.4285 5.39288 15.2294 5.48358 15.0219 5.48358H14.641L13.8657 16.5635C13.8255 17.1403 13.5888 17.679 13.2031 18.0721C12.8173 18.4651 12.3109 18.6835 11.785 18.6836H5.21528C4.68945 18.6835 4.18301 18.4651 3.79724 18.0721C3.41147 17.679 3.17481 17.1403 3.13458 16.5635L2.35928 5.48358H1.97841C1.77085 5.48358 1.57179 5.39288 1.42502 5.23143C1.27825 5.06999 1.1958 4.85102 1.1958 4.62271C1.1958 4.39439 1.27825 4.17542 1.42502 4.01398C1.57179 3.85254 1.77085 3.76184 1.97841 3.76184H4.58711ZM3.92971 5.48358H13.0706L12.3047 16.4315C12.2947 16.5757 12.2356 16.7104 12.1393 16.8087C12.0429 16.907 11.9164 16.9617 11.785 16.9618H5.21528C5.08387 16.9617 4.95735 16.907 4.86102 16.8087C4.76468 16.7104 4.70561 16.5757 4.69563 16.4315L3.92971 5.48358Z" fill="#EE3333"/>
</g>
<defs>
<clipPath id="clip0_271_3074">
<rect width="16.6957" height="18.3652" fill="white" transform="translate(0.152344 0.318359)"/>
</clipPath>
</defs>
</svg>
