<svg width="21" height="21" viewBox="0 0 21 21" fill="none" xmlns="http://www.w3.org/2000/svg">
<path d="M20.2578 7.39161L18.419 5.55279C18.2706 5.40643 18.0728 5.32097 17.8646 5.31326C17.6563 5.30554 17.4527 5.37614 17.294 5.51112C17.0488 5.71977 16.7343 5.82871 16.4126 5.81637C16.0909 5.80402 15.7856 5.67128 15.5572 5.44445C15.3305 5.21606 15.1979 4.91085 15.1855 4.58928C15.1732 4.26771 15.282 3.95324 15.4906 3.70813C15.6255 3.54936 15.6961 3.34577 15.6884 3.13751C15.6807 2.92925 15.5952 2.73145 15.4489 2.58309L13.6084 0.742183C13.4529 0.586943 13.2421 0.499756 13.0223 0.499756C12.8026 0.499756 12.5918 0.586943 12.4363 0.742183L9.50491 3.67313C9.32392 3.85476 9.18744 4.07582 9.10614 4.31899C9.09031 4.36574 9.06392 4.40822 9.02901 4.44312C8.99411 4.47803 8.95164 4.50442 8.90488 4.52025C8.66161 4.60155 8.44052 4.73819 8.25902 4.91943L0.742061 12.4364C0.586821 12.5919 0.499634 12.8027 0.499634 13.0225C0.499634 13.2422 0.586821 13.453 0.742061 13.6085L2.58297 15.4473C2.73132 15.5937 2.92913 15.6792 3.13739 15.6869C3.34565 15.6946 3.54923 15.624 3.70801 15.489C3.95256 15.2787 4.26755 15.1685 4.58989 15.1806C4.91222 15.1927 5.21807 15.3262 5.44615 15.5543C5.67423 15.7824 5.8077 16.0882 5.8198 16.4105C5.8319 16.7329 5.72175 17.0479 5.51142 17.2924C5.37643 17.4512 5.30584 17.6548 5.31355 17.863C5.32127 18.0713 5.40673 18.2691 5.55308 18.4175L7.39191 20.2563C7.54744 20.4115 7.75822 20.4987 7.97797 20.4987C8.19772 20.4987 8.4085 20.4115 8.56403 20.2563L16.081 12.7393C16.2621 12.5579 16.3988 12.337 16.4802 12.0939C16.4959 12.047 16.5224 12.0044 16.5573 11.9694C16.5923 11.9344 16.6349 11.908 16.6819 11.8922C16.9249 11.8109 17.1458 11.6744 17.3273 11.4934L20.2582 8.56207C20.4129 8.40655 20.4997 8.1961 20.4996 7.97676C20.4996 7.75741 20.4126 7.54702 20.2578 7.39161ZM10.742 6.15615C10.6801 6.21807 10.6066 6.26719 10.5257 6.30071C10.4448 6.33422 10.3581 6.35147 10.2706 6.35147C10.183 6.35147 10.0963 6.33422 10.0154 6.30071C9.9345 6.26719 9.86099 6.21807 9.79908 6.15615L9.31948 5.67654C9.1975 5.55088 9.12985 5.38227 9.13117 5.20715C9.13249 5.03202 9.20266 4.86445 9.32653 4.74064C9.45039 4.61683 9.618 4.54673 9.79312 4.54549C9.96825 4.54425 10.1368 4.61197 10.2624 4.73401L10.742 5.21319C10.804 5.2751 10.8531 5.3486 10.8866 5.4295C10.9201 5.5104 10.9374 5.5971 10.9374 5.68467C10.9374 5.77223 10.9201 5.85894 10.8866 5.93984C10.8531 6.02073 10.804 6.09424 10.742 6.15615ZM12.5754 7.98955C12.4504 8.11449 12.2809 8.18467 12.1042 8.18467C11.9274 8.18467 11.7579 8.11449 11.6329 7.98955L11.1746 7.5312C11.1126 7.46928 11.0635 7.39578 11.03 7.31488C10.9965 7.23399 10.9793 7.14728 10.9793 7.05972C10.9793 6.97216 10.9965 6.88546 11.03 6.80456C11.0635 6.72367 11.1126 6.65016 11.1746 6.58825C11.2996 6.4632 11.4692 6.39295 11.646 6.39295C11.7336 6.39295 11.8203 6.4102 11.9012 6.44371C11.9821 6.47722 12.0556 6.52633 12.1175 6.58825L12.5759 7.0466C12.638 7.1085 12.6873 7.18206 12.721 7.26306C12.7546 7.34406 12.772 7.4309 12.772 7.51861C12.7721 7.60633 12.7548 7.69318 12.7212 7.77421C12.6876 7.85524 12.6384 7.92884 12.5763 7.9908L12.5754 7.98955ZM14.4088 9.82296C14.3469 9.88488 14.2734 9.934 14.1925 9.96752C14.1116 10.001 14.0249 10.0183 13.9374 10.0183C13.8498 10.0183 13.7631 10.001 13.6822 9.96752C13.6013 9.934 13.5278 9.88488 13.4659 9.82296L13.0075 9.3646C12.8856 9.23895 12.8179 9.07033 12.8192 8.89521C12.8206 8.72008 12.8907 8.55251 13.0146 8.4287C13.1385 8.30489 13.3061 8.23479 13.4812 8.23355C13.6563 8.23231 13.8249 8.30003 13.9505 8.42207L14.4088 8.88042C14.4712 8.94222 14.5207 9.01572 14.5545 9.0967C14.5883 9.17767 14.6059 9.26453 14.606 9.3523C14.6062 9.44006 14.5891 9.527 14.5556 9.60812C14.5221 9.68925 14.473 9.76296 14.4109 9.82504L14.4088 9.82296ZM16.2602 11.6789C16.1983 11.7408 16.1248 11.7899 16.0439 11.8234C15.963 11.8569 15.8763 11.8742 15.7887 11.8742C15.7011 11.8742 15.6144 11.8569 15.5335 11.8234C15.4526 11.7899 15.3791 11.7408 15.3172 11.6789L14.8405 11.1997C14.7773 11.138 14.727 11.0643 14.6925 10.9829C14.658 10.9016 14.64 10.8142 14.6396 10.7258C14.6392 10.6375 14.6563 10.5499 14.69 10.4682C14.7237 10.3866 14.7734 10.3124 14.836 10.2501C14.8986 10.1877 14.973 10.1385 15.0549 10.1052C15.1367 10.0718 15.2243 10.0551 15.3127 10.056C15.4011 10.0568 15.4884 10.0752 15.5695 10.1101C15.6507 10.145 15.7242 10.1957 15.7856 10.2592L16.2627 10.738C16.3246 10.7999 16.3737 10.8735 16.4071 10.9544C16.4406 11.0353 16.4578 11.122 16.4578 11.2096C16.4577 11.2971 16.4405 11.3838 16.4069 11.4647C16.3734 11.5456 16.3242 11.6191 16.2623 11.6809L16.2602 11.6789Z" fill="#2F4058"/>
</svg>
