<svg width="24" height="24" viewBox="0 0 24 24" fill="none" xmlns="http://www.w3.org/2000/svg">
<g clip-path="url(#clip0_208_8)">
<path d="M11.5385 24C17.911 24 23.0769 18.6274 23.0769 12C23.0769 5.37258 17.911 0 11.5385 0C5.16595 0 0 5.37258 0 12C0 18.6274 5.16595 24 11.5385 24Z" fill="#2F4058"/>
<path d="M18.4089 17.4198C17.4245 15.6501 15.9076 14.3809 14.1374 13.7794C15.013 13.2373 15.6933 12.4112 16.0739 11.428C16.4544 10.4448 16.5141 9.35894 16.2437 8.33708C15.9734 7.31522 15.388 6.4139 14.5775 5.77152C13.7669 5.12915 12.7761 4.78125 11.757 4.78125C10.7379 4.78125 9.74703 5.12915 8.93648 5.77152C8.12593 6.4139 7.54055 7.31522 7.27022 8.33708C6.99989 9.35894 7.05957 10.4448 7.4401 11.428C7.82063 12.4112 8.50096 13.2373 9.3766 13.7794C7.60634 14.3803 6.08944 15.6494 5.1051 17.4198C5.069 17.4811 5.04505 17.5492 5.03468 17.6202C5.02431 17.6912 5.0277 17.7636 5.04468 17.8333C5.06166 17.9028 5.09187 17.9682 5.13353 18.0254C5.17519 18.0827 5.22745 18.1307 5.28724 18.1667C5.34703 18.2026 5.41313 18.2257 5.48165 18.2346C5.55015 18.2435 5.61969 18.2381 5.68615 18.2185C5.7526 18.1991 5.81464 18.166 5.86858 18.1212C5.92253 18.0763 5.9673 18.0207 6.00024 17.9576C7.2179 15.7691 9.37014 14.4624 11.757 14.4624C14.1439 14.4624 16.2961 15.7691 17.5137 17.9576C17.5467 18.0207 17.5914 18.0763 17.6454 18.1212C17.6994 18.166 17.7613 18.1991 17.8278 18.2185C17.8943 18.2381 17.9639 18.2435 18.0323 18.2346C18.1009 18.2257 18.1669 18.2026 18.2267 18.1667C18.2865 18.1307 18.3388 18.0827 18.3804 18.0254C18.4221 17.9682 18.4523 17.9028 18.4693 17.8333C18.4863 17.7636 18.4897 17.6912 18.4793 17.6202C18.4689 17.5492 18.445 17.4811 18.4089 17.4198ZM8.13761 9.6227C8.13761 8.87823 8.34989 8.15047 8.74759 7.53146C9.1453 6.91245 9.71056 6.42999 10.3719 6.14508C11.0333 5.86018 11.761 5.78565 12.4631 5.93088C13.1652 6.07612 13.8101 6.43462 14.3163 6.96105C14.8224 7.48747 15.1672 8.15818 15.3068 8.88836C15.4465 9.61852 15.3748 10.3754 15.1009 11.0631C14.8269 11.7509 14.363 12.3389 13.7678 12.7525C13.1726 13.1661 12.4729 13.3869 11.757 13.3869C10.7974 13.3858 9.87738 12.9889 9.19883 12.2831C8.5203 11.5775 8.13864 10.6207 8.13761 9.6227Z" fill="#F6F6F6"/>
</g>
<defs>
<clipPath id="clip0_208_8">
<rect width="24" height="24" fill="white"/>
</clipPath>
</defs>
</svg>
