<svg width="16" height="16" viewBox="0 0 16 16" fill="none" xmlns="http://www.w3.org/2000/svg">
<path d="M8.00002 9.33317V14.6665H2.66669C2.66669 13.252 3.22859 11.8955 4.22878 10.8953C5.22898 9.89507 6.58553 9.33317 8.00002 9.33317ZM8.00002 8.6665C5.79002 8.6665 4.00002 6.8765 4.00002 4.6665C4.00002 2.4565 5.79002 0.666504 8.00002 0.666504C10.21 0.666504 12 2.4565 12 4.6665C12 6.8765 10.21 8.6665 8.00002 8.6665ZM14 11.3332H14.6667V14.6665H9.33335V11.3332H10V10.6665C10 10.1361 10.2107 9.62736 10.5858 9.25229C10.9609 8.87722 11.4696 8.6665 12 8.6665C12.5305 8.6665 13.0392 8.87722 13.4142 9.25229C13.7893 9.62736 14 10.1361 14 10.6665V11.3332ZM12.6667 11.3332V10.6665C12.6667 10.4897 12.5964 10.3201 12.4714 10.1951C12.3464 10.0701 12.1768 9.99984 12 9.99984C11.8232 9.99984 11.6536 10.0701 11.5286 10.1951C11.4036 10.3201 11.3334 10.4897 11.3334 10.6665V11.3332H12.6667Z" fill="#2F4058"/>
</svg>
