<svg width="16" height="16" viewBox="0 0 16 16" fill="none" xmlns="http://www.w3.org/2000/svg">
<path d="M8.00002 9.33268V14.666H2.66669C2.66669 13.2515 3.22859 11.895 4.22878 10.8948C5.22898 9.89459 6.58553 9.33268 8.00002 9.33268ZM8.00002 8.66602C5.79002 8.66602 4.00002 6.87602 4.00002 4.66602C4.00002 2.45602 5.79002 0.666016 8.00002 0.666016C10.21 0.666016 12 2.45602 12 4.66602C12 6.87602 10.21 8.66602 8.00002 8.66602ZM14 11.3327H14.6667V14.666H9.33335V11.3327H10V10.666C10 10.1356 10.2107 9.62687 10.5858 9.2518C10.9609 8.87673 11.4696 8.66602 12 8.66602C12.5305 8.66602 13.0392 8.87673 13.4142 9.2518C13.7893 9.62687 14 10.1356 14 10.666V11.3327ZM12.6667 11.3327V10.666C12.6667 10.4892 12.5964 10.3196 12.4714 10.1946C12.3464 10.0696 12.1768 9.99935 12 9.99935C11.8232 9.99935 11.6536 10.0696 11.5286 10.1946C11.4036 10.3196 11.3334 10.4892 11.3334 10.666V11.3327H12.6667Z" fill="white"/>
</svg>
