<svg width="16" height="16" viewBox="0 0 16 16" fill="none" xmlns="http://www.w3.org/2000/svg">
<path d="M2.00002 14.6665C1.63335 14.6665 1.31935 14.5358 1.05802 14.2745C0.796688 14.0132 0.666244 13.6994 0.666688 13.3332V5.99984H2.00002V13.3332H13.3334V14.6665H2.00002ZM4.66669 11.9998C4.30002 11.9998 3.98602 11.8692 3.72469 11.6078C3.46336 11.3465 3.33291 11.0327 3.33335 10.6665V3.33317H6.66669V1.99984C6.66669 1.63317 6.79736 1.31917 7.05869 1.05784C7.32002 0.796505 7.6338 0.666061 8.00002 0.666505H10.6667C11.0334 0.666505 11.3474 0.797172 11.6087 1.05851C11.87 1.31984 12.0005 1.63362 12 1.99984V3.33317H15.3334V10.6665C15.3334 11.0332 15.2027 11.3472 14.9414 11.6085C14.68 11.8698 14.3662 12.0003 14 11.9998H4.66669ZM8.00002 3.33317H10.6667V1.99984H8.00002V3.33317Z" fill="#2F4058"/>
</svg>
