<svg width="16" height="16" viewBox="0 0 16 16" fill="none" xmlns="http://www.w3.org/2000/svg">
<g clip-path="url(#clip0_146_7)">
<path d="M0 16V1.6C0 1.16 0.1568 0.783201 0.4704 0.469601C0.784 0.156001 1.16053 -0.000531975 1.6 1.35823e-06H14.4C14.84 1.35823e-06 15.2168 0.156801 15.5304 0.470401C15.844 0.784001 16.0005 1.16053 16 1.6V11.2C16 11.64 15.8432 12.0168 15.5296 12.3304C15.216 12.644 14.8395 12.8005 14.4 12.8H3.2L0 16ZM3.2 9.6H9.6V8H3.2V9.6ZM3.2 7.2H12.8V5.6H3.2V7.2ZM3.2 4.8H12.8V3.2H3.2V4.8Z" fill="white"/>
</g>
<defs>
<clipPath id="clip0_146_7">
<rect width="16" height="16" fill="white"/>
</clipPath>
</defs>
</svg>
