<svg width="16" height="16" viewBox="0 0 16 16" fill="none" xmlns="http://www.w3.org/2000/svg">
<path d="M8.74991 0.75V2H9.73491C10.0389 2 10.3379 2.08 10.6019 2.231L11.8919 2.967C11.9299 2.989 11.9719 3 12.0159 3H14.2499C14.4488 3 14.6396 3.07902 14.7802 3.21967C14.9209 3.36032 14.9999 3.55109 14.9999 3.75C14.9999 3.94891 14.9209 4.13968 14.7802 4.28033C14.6396 4.42098 14.4488 4.5 14.2499 4.5H13.8229L15.9339 9.192C15.9963 9.33081 16.015 9.48531 15.9875 9.63499C15.96 9.78467 15.8876 9.92244 15.7799 10.03L15.2499 9.5L15.7789 10.031L15.7779 10.033L15.7759 10.035L15.7699 10.041L15.7639 10.046L15.7539 10.056L15.7089 10.096C15.4989 10.272 15.2679 10.423 15.0229 10.546C14.5559 10.78 13.8799 11 12.9999 11C12.2994 11.0083 11.6067 10.8528 10.9769 10.546C10.7316 10.4231 10.5014 10.2721 10.2909 10.096L10.2459 10.056L10.2299 10.041L10.2239 10.035L10.2199 10.031V10.03C10.1122 9.92244 10.0399 9.78467 10.0124 9.63499C9.98485 9.48531 10.0035 9.33081 10.0659 9.192L12.1779 4.5H12.0159C11.7109 4.5 11.4119 4.421 11.1479 4.269L9.85791 3.533C9.82024 3.51118 9.77744 3.49979 9.73391 3.5H8.74991V13H11.2499C11.4488 13 11.6396 13.079 11.7802 13.2197C11.9209 13.3603 11.9999 13.5511 11.9999 13.75C11.9999 13.9489 11.9209 14.1397 11.7802 14.2803C11.6396 14.421 11.4488 14.5 11.2499 14.5H4.74991C4.55099 14.5 4.36023 14.421 4.21958 14.2803C4.07892 14.1397 3.99991 13.9489 3.99991 13.75C3.99991 13.5511 4.07892 13.3603 4.21958 13.2197C4.36023 13.079 4.55099 13 4.74991 13H7.24991V3.5H6.26591C6.22238 3.49979 6.17957 3.51118 6.14191 3.533L4.85291 4.27C4.58791 4.42 4.28891 4.5 3.98391 4.5H3.82191L5.93391 9.192C5.99629 9.33081 6.01497 9.48531 5.98746 9.63499C5.95995 9.78467 5.88757 9.92244 5.77991 10.03L5.24991 9.5L5.77891 10.031L5.77791 10.033L5.77591 10.035L5.76991 10.041L5.75391 10.056L5.70891 10.096C5.49891 10.272 5.26791 10.423 5.02291 10.546C4.55591 10.78 3.87991 11 2.99991 11C2.29942 11.0083 1.60669 10.8528 0.976907 10.546C0.73159 10.4231 0.501381 10.2721 0.290907 10.096L0.245907 10.056L0.229907 10.041L0.223907 10.035L0.219907 10.031V10.03C0.112248 9.92244 0.0398593 9.78467 0.0123529 9.63499C-0.0151535 9.48531 0.00352465 9.33081 0.0659066 9.192L2.17791 4.5H1.74991C1.55099 4.5 1.36023 4.42098 1.21958 4.28033C1.07892 4.13968 0.999907 3.94891 0.999907 3.75C0.999907 3.55109 1.07892 3.36032 1.21958 3.21967C1.36023 3.07902 1.55099 3 1.74991 3H3.98391C4.02775 3.0002 4.07087 2.98881 4.10891 2.967L5.39691 2.23C5.66191 2.08 5.96091 2 6.26591 2H7.24991V0.75C7.24991 0.551088 7.32892 0.360322 7.46958 0.21967C7.61023 0.0790176 7.80099 0 7.99991 0C8.19882 0 8.38958 0.0790176 8.53024 0.21967C8.67089 0.360322 8.74991 0.551088 8.74991 0.75ZM11.6949 9.227C11.9799 9.362 12.4129 9.5 12.9999 9.5C13.5869 9.5 14.0199 9.362 14.3049 9.227L12.9999 6.327L11.6949 9.227ZM1.69491 9.227C1.97991 9.362 2.41291 9.5 2.99991 9.5C3.58691 9.5 4.01991 9.362 4.30491 9.227L2.99991 6.327L1.69491 9.227Z" fill="white"/>
</svg>
