<svg width="16" height="16" viewBox="0 0 16 16" fill="none" xmlns="http://www.w3.org/2000/svg">
<path d="M15.2727 8V13.6C15.2727 13.9713 15.1195 14.3274 14.8467 14.5899C14.5739 14.8525 14.204 15 13.8182 15H2.18182C1.79605 15 1.42608 14.8525 1.1533 14.5899C0.880519 14.3274 0.727273 13.9713 0.727273 13.6V8C0.534388 8 0.349403 7.92625 0.213013 7.79497C0.0766231 7.6637 0 7.48565 0 7.3V5.2C0 4.8287 0.153246 4.4726 0.426027 4.21005C0.698807 3.9475 1.06878 3.8 1.45455 3.8H3.76C3.67781 3.57511 3.636 3.3384 3.63636 3.1C3.63636 2.54305 3.86623 2.0089 4.2754 1.61508C4.68457 1.22125 5.23953 1 5.81818 1C6.54545 1 7.18545 1.35 7.58545 1.868V1.861L8 2.4L8.41455 1.861V1.868C8.81455 1.35 9.45455 1 10.1818 1C10.7605 1 11.3154 1.22125 11.7246 1.61508C12.1338 2.0089 12.3636 2.54305 12.3636 3.1C12.364 3.3384 12.3222 3.57511 12.24 3.8H14.5455C14.9312 3.8 15.3012 3.9475 15.574 4.21005C15.8468 4.4726 16 4.8287 16 5.2V7.3C16 7.48565 15.9234 7.6637 15.787 7.79497C15.6506 7.92625 15.4656 8 15.2727 8ZM2.18182 13.6H7.27273V8H2.18182V13.6ZM13.8182 13.6V8H8.72727V13.6H13.8182ZM5.81818 2.4C5.6253 2.4 5.44031 2.47375 5.30392 2.60503C5.16753 2.7363 5.09091 2.91435 5.09091 3.1C5.09091 3.28565 5.16753 3.4637 5.30392 3.59497C5.44031 3.72625 5.6253 3.8 5.81818 3.8C6.01107 3.8 6.19605 3.72625 6.33244 3.59497C6.46883 3.4637 6.54545 3.28565 6.54545 3.1C6.54545 2.91435 6.46883 2.7363 6.33244 2.60503C6.19605 2.47375 6.01107 2.4 5.81818 2.4ZM10.1818 2.4C9.98893 2.4 9.80395 2.47375 9.66756 2.60503C9.53117 2.7363 9.45455 2.91435 9.45455 3.1C9.45455 3.28565 9.53117 3.4637 9.66756 3.59497C9.80395 3.72625 9.98893 3.8 10.1818 3.8C10.3747 3.8 10.5597 3.72625 10.6961 3.59497C10.8325 3.4637 10.9091 3.28565 10.9091 3.1C10.9091 2.91435 10.8325 2.7363 10.6961 2.60503C10.5597 2.47375 10.3747 2.4 10.1818 2.4ZM1.45455 5.2V6.6H7.27273V5.2H1.45455ZM8.72727 5.2V6.6H14.5455V5.2H8.72727Z" fill="#2F4058"/>
</svg>
