<svg width="18" height="18" viewBox="0 0 18 18" fill="none" xmlns="http://www.w3.org/2000/svg">
<path d="M1.5 13C1.0875 13 0.734251 12.853 0.440251 12.559C0.146251 12.265 -0.000498727 11.912 1.27334e-06 11.5V3.25H1.5V11.5H14.25V13H1.5ZM4.5 10C4.0875 10 3.73425 9.853 3.44025 9.559C3.14625 9.265 2.9995 8.912 3 8.5V2.5C3 2.0875 3.147 1.73425 3.441 1.44025C3.735 1.14625 4.088 0.999501 4.5 1H15C15.4125 1 15.7658 1.147 16.0598 1.441C16.3538 1.735 16.5005 2.088 16.5 2.5V8.5C16.5 8.9125 16.353 9.26575 16.059 9.55975C15.765 9.85375 15.412 10.0005 15 10H4.5ZM6 8.5C6 8.0875 5.853 7.73425 5.559 7.44025C5.265 7.14625 4.912 6.9995 4.5 7V8.5H6ZM13.5 8.5H15V7C14.5875 7 14.2343 7.147 13.9403 7.441C13.6463 7.735 13.4995 8.088 13.5 8.5ZM9.75 7.75C10.375 7.75 10.9063 7.53125 11.3438 7.09375C11.7813 6.65625 12 6.125 12 5.5C12 4.875 11.7813 4.34375 11.3438 3.90625C10.9063 3.46875 10.375 3.25 9.75 3.25C9.125 3.25 8.59375 3.46875 8.15625 3.90625C7.71875 4.34375 7.5 4.875 7.5 5.5C7.5 6.125 7.71875 6.65625 8.15625 7.09375C8.59375 7.53125 9.125 7.75 9.75 7.75ZM4.5 4C4.9125 4 5.26575 3.853 5.55975 3.559C5.85375 3.265 6.0005 2.912 6 2.5H4.5V4ZM15 4V2.5H13.5C13.5 2.9125 13.647 3.26575 13.941 3.55975C14.235 3.85375 14.588 4.0005 15 4Z" fill="#2F4058"/>
</svg>
