<svg width="14" height="14" viewBox="0 0 14 14" fill="none" xmlns="http://www.w3.org/2000/svg">
<path d="M11.5 2H13C13.1326 2 13.2598 2.05268 13.3536 2.14645C13.4473 2.24021 13.5 2.36739 13.5 2.5V10.5C13.5 10.6326 13.4473 10.7598 13.3536 10.8536C13.2598 10.9473 13.1326 11 13 11H1C0.867392 11 0.740215 10.9473 0.646447 10.8536C0.552678 10.7598 0.5 10.6326 0.5 10.5V2.5C0.5 2.36739 0.552678 2.24021 0.646447 2.14645C0.740215 2.05268 0.867392 2 1 2H2.5M6 11L5 13.5M8 11L9 13.5M4 13.5H10" stroke="white" stroke-linecap="round" stroke-linejoin="round"/>
<path d="M7 8C8.65685 8 10 6.65685 10 5C10 3.34315 8.65685 2 7 2C5.34315 2 4 3.34315 4 5C4 6.65685 5.34315 8 7 8Z" stroke="white" stroke-linecap="round" stroke-linejoin="round"/>
<path d="M4.88 7.12086L9.12 2.88086" stroke="white" stroke-linecap="round" stroke-linejoin="round"/>
</svg>
