<svg width="16" height="16" viewBox="0 0 16 16" fill="none" xmlns="http://www.w3.org/2000/svg">
<path d="M15.2 8.376C15.2 3.984 11.792 1 8 1C4.248 1 0.8 3.92 0.8 8.424C0.32 8.696 0 9.208 0 9.8V11.4C0 12.28 0.72 13 1.6 13H2.4V8.12C2.4 5.024 4.904 2.52 8 2.52C11.096 2.52 13.6 5.024 13.6 8.12V13.8H7.2V15.4H13.6C14.48 15.4 15.2 14.68 15.2 13.8V12.824C15.672 12.576 16 12.088 16 11.512V9.672C16 9.112 15.672 8.624 15.2 8.376Z" fill="white"/>
<path d="M5.6 9.8C6.04183 9.8 6.4 9.44183 6.4 9C6.4 8.55817 6.04183 8.2 5.6 8.2C5.15818 8.2 4.8 8.55817 4.8 9C4.8 9.44183 5.15818 9.8 5.6 9.8Z" fill="white"/>
<path d="M10.4 9.8C10.8418 9.8 11.2 9.44183 11.2 9C11.2 8.55817 10.8418 8.2 10.4 8.2C9.95818 8.2 9.60001 8.55817 9.60001 9C9.60001 9.44183 9.95818 9.8 10.4 9.8Z" fill="white"/>
<path d="M12.8 7.424C12.6092 6.29931 12.0267 5.27837 11.1556 4.5419C10.2844 3.80544 9.18075 3.40094 8.03999 3.4C5.61599 3.4 3.00799 5.408 3.21599 8.56C4.2025 8.15631 5.07379 7.51479 5.75218 6.69263C6.43057 5.87046 6.89497 4.89321 7.10399 3.848C8.15199 5.952 10.304 7.4 12.8 7.424Z" fill="white"/>
</svg>
