<svg width="12" height="13" viewBox="0 0 12 13" fill="none" xmlns="http://www.w3.org/2000/svg">
<path d="M7.49979 6.49912V12.1895C7.52979 12.4061 7.4548 12.6372 7.28232 12.7888C7.21295 12.8558 7.13054 12.9089 7.03982 12.9451C6.94911 12.9813 6.85186 13 6.75364 13C6.65543 13 6.55818 12.9813 6.46747 12.9451C6.37675 12.9089 6.29434 12.8558 6.22497 12.7888L4.71768 11.3374C4.63589 11.2604 4.5737 11.1662 4.53598 11.0622C4.49825 10.9582 4.48601 10.8473 4.50021 10.738V6.49912H4.47771L0.158309 1.16984C0.0365318 1.0193 -0.0184164 0.828463 0.00547091 0.639029C0.0293582 0.449596 0.130139 0.276968 0.285791 0.158867C0.428271 0.05777 0.58575 0 0.750727 0H11.2493C11.4142 0 11.5717 0.05777 11.7142 0.158867C11.8699 0.276968 11.9706 0.449596 11.9945 0.639029C12.0184 0.828463 11.9635 1.0193 11.8417 1.16984L7.52229 6.49912H7.49979Z" fill="white"/>
</svg>
