<svg width="22" height="24" viewBox="0 0 22 24" fill="none" xmlns="http://www.w3.org/2000/svg">
<g clip-path="url(#clip0_156_2)">
<path d="M0.5 4.5C0.5 3.67031 1.17031 3 2 3H20C20.8297 3 21.5 3.67031 21.5 4.5C21.5 5.32969 20.8297 6 20 6H2C1.17031 6 0.5 5.32969 0.5 4.5ZM0.5 12C0.5 11.1703 1.17031 10.5 2 10.5H20C20.8297 10.5 21.5 11.1703 21.5 12C21.5 12.8297 20.8297 13.5 20 13.5H2C1.17031 13.5 0.5 12.8297 0.5 12ZM21.5 19.5C21.5 20.3297 20.8297 21 20 21H2C1.17031 21 0.5 20.3297 0.5 19.5C0.5 18.6703 1.17031 18 2 18H20C20.8297 18 21.5 18.6703 21.5 19.5Z" fill="#2F4058"/>
</g>
<defs>
<clipPath id="clip0_156_2">
<rect width="21" height="24" fill="white" transform="translate(0.5)"/>
</clipPath>
</defs>
</svg>
