<svg width="14" height="15" viewBox="0 0 14 15" fill="none" xmlns="http://www.w3.org/2000/svg">
<path fill-rule="evenodd" clip-rule="evenodd" d="M5.03125 2.8125V1.40625H8.96875V2.8125H5.03125ZM3.71875 2.8125V0.9375C3.71875 0.68886 3.81094 0.450403 3.97503 0.274587C4.13913 0.0987721 4.36169 0 4.59375 0L9.40625 0C9.63831 0 9.86087 0.0987721 10.025 0.274587C10.1891 0.450403 10.2812 0.68886 10.2812 0.9375V2.8125H12.4688C12.6428 2.8125 12.8097 2.88658 12.9328 3.01844C13.0559 3.1503 13.125 3.32914 13.125 3.51562C13.125 3.70211 13.0559 3.88095 12.9328 4.01281C12.8097 4.14467 12.6428 4.21875 12.4688 4.21875H12.1494L11.4993 13.2684C11.4655 13.7395 11.2671 14.1795 10.9436 14.5006C10.6201 14.8216 10.1954 15 9.7545 15H4.2455C3.80457 15 3.3799 14.8216 3.05641 14.5006C2.73293 14.1795 2.53448 13.7395 2.50075 13.2684L1.85063 4.21875H1.53125C1.3572 4.21875 1.19028 4.14467 1.06721 4.01281C0.94414 3.88095 0.875 3.70211 0.875 3.51562C0.875 3.32914 0.94414 3.1503 1.06721 3.01844C1.19028 2.88658 1.3572 2.8125 1.53125 2.8125H3.71875ZM3.1675 4.21875H10.8325L10.1902 13.1606C10.1819 13.2783 10.1323 13.3883 10.0516 13.4686C9.97078 13.5489 9.86469 13.5936 9.7545 13.5938H4.2455C4.13531 13.5936 4.02922 13.5489 3.94844 13.4686C3.86765 13.3883 3.81812 13.2783 3.80975 13.1606L3.1675 4.21875Z" fill="#EE3333"/>
</svg>
