<svg width="6" height="9" viewBox="0 0 6 9" fill="none" xmlns="http://www.w3.org/2000/svg">
<path fill-rule="evenodd" clip-rule="evenodd" d="M4.80404 3.56733C4.9679 3.7314 5.05994 3.95379 5.05994 4.18567C5.05994 4.41754 4.9679 4.63994 4.80404 4.804L1.50471 8.1045C1.34056 8.26857 1.11796 8.36071 0.885875 8.36066C0.770959 8.36063 0.657173 8.33797 0.551014 8.29397C0.444856 8.24997 0.348404 8.18549 0.267165 8.10421C0.185926 8.02293 0.121491 7.92645 0.0775396 7.82027C0.033588 7.71409 0.0109801 7.60029 0.0110072 7.48538C0.0110342 7.37046 0.033696 7.25667 0.0776976 7.15052C0.121699 7.04436 0.186179 6.94791 0.267457 6.86667L2.94846 4.18567L0.267457 1.50467C0.183848 1.42399 0.117144 1.32747 0.0712366 1.22074C0.0253291 1.11401 0.00113744 0.9992 7.34463e-05 0.883019C-0.000990544 0.766838 0.0210943 0.651608 0.0650393 0.544054C0.108984 0.436499 0.17391 0.338774 0.256027 0.25658C0.338144 0.174385 0.435808 0.109368 0.543321 0.0653214C0.650834 0.0212749 0.766043 -0.00091823 0.882225 3.62065e-05C0.998407 0.000990643 1.11323 0.0250732 1.22001 0.0708801C1.32678 0.116687 1.42337 0.1833 1.50412 0.266832L4.80521 3.56733H4.80404Z" fill="#2F4058"/>
</svg>
