<svg width="28" height="28" viewBox="0 0 28 28" fill="none" xmlns="http://www.w3.org/2000/svg">
<path d="M16.3999 10.4C16.3999 11.0366 16.1471 11.647 15.697 12.0971C15.2469 12.5472 14.6365 12.8 14 12.8H6.79998L2 17.6001V4.40001C2 3.08 3.08 2 4.39999 2H14C14.6365 2 15.2469 2.25286 15.697 2.70295C16.1471 3.15304 16.3999 3.76349 16.3999 4.40001V10.4Z" stroke="#2F4058" stroke-width="2.4" stroke-linecap="round" stroke-linejoin="round"/>
<path d="M21.2001 10.3999H23.6C24.2366 10.3999 24.847 10.6528 25.2971 11.1028C25.7472 11.5529 26 12.1634 26 12.7999V26L21.2001 21.1999H14.0001C13.3636 21.1999 12.7531 20.9471 12.303 20.497C11.853 20.0469 11.6001 19.4365 11.6001 18.7999V17.5999" stroke="#2F4058" stroke-width="2.4" stroke-linecap="round" stroke-linejoin="round"/>
</svg>
