<svg width="34" height="34" viewBox="0 0 34 34" fill="none" xmlns="http://www.w3.org/2000/svg">
<circle cx="17" cy="17" r="17" fill="white"/>
<path d="M13.9999 20L24.9999 9M13.9999 20L17.4999 27C17.5438 27.0957 17.6143 27.1769 17.7029 27.2338C17.7915 27.2906 17.8946 27.3209 17.9999 27.3209C18.1053 27.3209 18.2084 27.2906 18.297 27.2338C18.3856 27.1769 18.4561 27.0957 18.4999 27L24.9999 9M13.9999 20L6.99995 16.5C6.90421 16.4561 6.82307 16.3857 6.76619 16.2971C6.70931 16.2084 6.67908 16.1053 6.67908 16C6.67908 15.8947 6.70931 15.7916 6.76619 15.7029C6.82307 15.6143 6.90421 15.5439 6.99995 15.5L24.9999 9" stroke="#2F4058" stroke-width="2" stroke-linecap="round" stroke-linejoin="round"/>
</svg>
