<svg width="16" height="16" viewBox="0 0 16 16" fill="none" xmlns="http://www.w3.org/2000/svg">
<g clip-path="url(#clip0_146_29)">
<path d="M1.45455 16C1.05455 16 0.712001 15.8507 0.42691 15.552C0.141819 15.2533 -0.000483614 14.8947 1.23476e-06 14.4762V6.09524H1.45455V14.4762H13.8182V16H1.45455ZM4.36364 12.9524C3.96364 12.9524 3.62109 12.803 3.336 12.5044C3.05091 12.2057 2.90861 11.8471 2.90909 11.4286V3.04762H6.54546V1.52381C6.54546 1.10476 6.688 0.745906 6.97309 0.447239C7.25818 0.148573 7.60049 -0.000506643 8 1.29356e-06H10.9091C11.3091 1.29356e-06 11.6516 0.149335 11.9367 0.448001C12.2218 0.746668 12.3641 1.10527 12.3636 1.52381V3.04762H16V11.4286C16 11.8476 15.8575 12.2065 15.5724 12.5051C15.2873 12.8038 14.945 12.9529 14.5455 12.9524H4.36364ZM8 3.04762H10.9091V1.52381H8V3.04762Z" fill="#2F4058"/>
</g>
<defs>
<clipPath id="clip0_146_29">
<rect width="16" height="16" fill="white"/>
</clipPath>
</defs>
</svg>
