<svg width="18" height="18" viewBox="0 0 18 18" fill="none" xmlns="http://www.w3.org/2000/svg">
<path d="M15.9743 7.34625C16.2284 7.29455 16.4569 7.15664 16.621 6.95587C16.7851 6.75509 16.8749 6.50378 16.875 6.24445V4.5C16.875 4.20163 16.7565 3.91548 16.5455 3.7045C16.3345 3.49353 16.0484 3.375 15.75 3.375H2.25C1.95163 3.375 1.66549 3.49353 1.45451 3.7045C1.24353 3.91548 1.125 4.20163 1.125 4.5V6.24445C1.12514 6.50378 1.21487 6.75509 1.379 6.95587C1.54313 7.15664 1.77159 7.29455 2.02571 7.34625C2.40568 7.42505 2.74688 7.6324 2.99184 7.93337C3.2368 8.23434 3.37054 8.61054 3.37054 8.99859C3.37054 9.38665 3.2368 9.76285 2.99184 10.0638C2.74688 10.3648 2.40568 10.5721 2.02571 10.6509C1.77111 10.7027 1.5423 10.8411 1.37811 11.0424C1.21393 11.2438 1.1245 11.4957 1.125 11.7555V13.5C1.125 13.7984 1.24353 14.0845 1.45451 14.2955C1.66549 14.5065 1.95163 14.625 2.25 14.625H15.75C16.0484 14.625 16.3345 14.5065 16.5455 14.2955C16.7565 14.0845 16.875 13.7984 16.875 13.5V11.7555C16.8749 11.4962 16.7851 11.2449 16.621 11.0441C16.4569 10.8434 16.2284 10.7055 15.9743 10.6538C15.5943 10.575 15.2531 10.3676 15.0082 10.0666C14.7632 9.76566 14.6295 9.38946 14.6295 9.00141C14.6295 8.61335 14.7632 8.23715 15.0082 7.93618C15.2531 7.63521 15.5943 7.42786 15.9743 7.34906V7.34625ZM2.25 11.7562C2.88541 11.6268 3.45657 11.2818 3.86679 10.7796C4.27702 10.2774 4.50109 9.64881 4.50109 9.00035C4.50109 8.35189 4.27702 7.72335 3.86679 7.22114C3.45657 6.71893 2.88541 6.37389 2.25 6.24445V4.5H6.1875V13.5H2.25V11.7562Z" fill="white"/>
</svg>
