<svg width="16" height="16" viewBox="0 0 16 16" fill="none" xmlns="http://www.w3.org/2000/svg">
<path fill-rule="evenodd" clip-rule="evenodd" d="M8.8644 12.219C8.63904 12.4533 8.33343 12.5849 8.01477 12.5849C7.69611 12.5849 7.3905 12.4533 7.16514 12.219L0.366878 5.14879C0.252099 5.0335 0.160548 4.89559 0.0975657 4.7431C0.0345836 4.59062 0.00143196 4.42662 4.53734e-05 4.26067C-0.00134122 4.09472 0.0290652 3.93015 0.0894899 3.77655C0.149915 3.62295 0.239148 3.48341 0.351983 3.36606C0.464817 3.24871 0.598994 3.15591 0.746684 3.09307C0.894373 3.03023 1.05262 2.99861 1.21219 3.00005C1.37175 3.00149 1.52944 3.03597 1.67606 3.10147C1.82268 3.16697 1.95529 3.26218 2.06614 3.38155L8.01477 9.56813L13.9634 3.38155C14.19 3.15389 14.4936 3.02792 14.8087 3.03076C15.1238 3.03361 15.4252 3.16505 15.648 3.39678C15.8708 3.6285 15.9972 3.94197 16 4.26967C16.0027 4.59736 15.8816 4.91307 15.6627 5.14879L8.8644 12.219Z" fill="#2F4058"/>
</svg>
