<svg width="6" height="10" viewBox="0 0 6 10" fill="none" xmlns="http://www.w3.org/2000/svg">
<path fill-rule="evenodd" clip-rule="evenodd" d="M0.631629 5.61754C0.46777 5.45348 0.375732 5.23109 0.375732 4.99921C0.375732 4.76733 0.46777 4.54494 0.631629 4.38088L3.93096 1.08038C4.09511 0.916307 4.31771 0.824164 4.54979 0.824219C4.66471 0.824246 4.7785 0.846907 4.88465 0.890909C4.99081 0.93491 5.08726 0.99939 5.1685 1.08067C5.24974 1.16194 5.31418 1.25843 5.35813 1.36461C5.40208 1.47079 5.42469 1.58458 5.42466 1.6995C5.42463 1.81442 5.40197 1.9282 5.35797 2.03436C5.31397 2.14052 5.24949 2.23697 5.16821 2.31821L2.48721 4.99921L5.16821 7.68021C5.25182 7.76089 5.31852 7.85741 5.36443 7.96414C5.41034 8.07087 5.43453 8.18568 5.4356 8.30186C5.43666 8.41804 5.41457 8.53327 5.37063 8.64082C5.32668 8.74838 5.26176 8.8461 5.17964 8.9283C5.09753 9.01049 4.99986 9.07551 4.89235 9.11955C4.78484 9.1636 4.66963 9.18579 4.55344 9.18484C4.43726 9.18388 4.32243 9.1598 4.21566 9.114C4.10888 9.06819 4.0123 9.00158 3.93155 8.91804L0.630463 5.61754H0.631629Z" fill="#2F4058"/>
</svg>
