<svg width="25" height="25" viewBox="0 0 25 25" fill="none" xmlns="http://www.w3.org/2000/svg">
<path d="M23.3647 4.17372C24.3017 3.23666 24.3017 1.71487 23.3647 0.777808C22.4276 -0.159253 20.9058 -0.159253 19.9687 0.777808L12.0749 8.67911L4.17365 0.785304C3.23659 -0.151757 1.71481 -0.151757 0.777747 0.785304C-0.159314 1.72237 -0.159314 3.24415 0.777747 4.18121L8.67904 12.075L0.785243 19.9763C-0.151817 20.9134 -0.151817 22.4352 0.785243 23.3722C1.7223 24.3093 3.24409 24.3093 4.18115 23.3722L12.0749 15.4709L19.9762 23.3647C20.9133 24.3018 22.4351 24.3018 23.3722 23.3647C24.3092 22.4277 24.3092 20.9059 23.3722 19.9688L15.4709 12.075L23.3647 4.17372Z" fill="#2F4058"/>
</svg>
