<svg width="24" height="24" viewBox="0 0 24 24" fill="none" xmlns="http://www.w3.org/2000/svg">
<ellipse cx="11.5385" cy="12" rx="11.5385" ry="12" fill="#2F4058"/>
<path d="M18.4089 17.4199C17.4245 15.65 15.9076 14.381 14.1374 13.7794C15.013 13.2373 15.6934 12.4112 16.0739 11.428C16.4544 10.4448 16.5141 9.35894 16.2438 8.33708C15.9734 7.31522 15.3881 6.41389 14.5775 5.77152C13.767 5.12915 12.7761 4.78125 11.757 4.78125C10.7379 4.78125 9.74703 5.12915 8.93648 5.77152C8.12593 6.41389 7.54055 7.31522 7.27022 8.33708C6.9999 9.35894 7.05958 10.4448 7.4401 11.428C7.82063 12.4112 8.50096 13.2373 9.37661 13.7794C7.60634 14.3803 6.08944 15.6494 5.1051 17.4199C5.069 17.4811 5.04506 17.5492 5.03468 17.6202C5.0243 17.6912 5.02771 17.7636 5.04468 17.8332C5.06166 17.9028 5.09187 17.9682 5.13353 18.0255C5.17519 18.0827 5.22746 18.1307 5.28725 18.1666C5.34703 18.2026 5.41314 18.2257 5.48165 18.2346C5.55016 18.2435 5.61969 18.238 5.68615 18.2186C5.75261 18.1991 5.81464 18.166 5.86858 18.1211C5.92253 18.0763 5.9673 18.0207 6.00025 17.9576C7.21791 15.769 9.37014 14.4623 11.757 14.4623C14.1438 14.4623 16.2961 15.769 17.5137 17.9576C17.5467 18.0207 17.5915 18.0763 17.6454 18.1211C17.6993 18.166 17.7614 18.1991 17.8278 18.2186C17.8943 18.238 17.9638 18.2435 18.0323 18.2346C18.1009 18.2257 18.167 18.2026 18.2267 18.1666C18.2865 18.1307 18.3388 18.0827 18.3805 18.0255C18.4221 17.9682 18.4523 17.9028 18.4693 17.8332C18.4863 17.7636 18.4897 17.6912 18.4793 17.6202C18.4689 17.5492 18.445 17.4811 18.4089 17.4199ZM8.13762 9.6227C8.13762 8.87822 8.34989 8.15046 8.74759 7.53145C9.14529 6.91244 9.71056 6.42998 10.3719 6.14508C11.0333 5.86018 11.761 5.78564 12.4631 5.93088C13.1652 6.07612 13.8101 6.43462 14.3163 6.96104C14.8225 7.48747 15.1672 8.15818 15.3068 8.88835C15.4465 9.61853 15.3748 10.3754 15.1009 11.0632C14.8269 11.751 14.363 12.3389 13.7678 12.7525C13.1726 13.1661 12.4728 13.3869 11.757 13.3869C10.7974 13.3858 9.87738 12.9889 9.19884 12.2832C8.5203 11.5775 8.13864 10.6207 8.13762 9.6227Z" fill="#F6F6F6"/>
</svg>
